#!OML:ASF H:\Dans Jumps\Project 1\Capture day 1\Session 1\subject.ASF
:FULLY-SPECIFIED
:DEGREES
165
root 0.350053 17.5342 -13.9677 4.81932 -2.73271 -1.24277
lowerback -3.03593 -0.918751 -0.00598377
upperback 1.68488 -1.27408 1.47387
thorax 3.46949 -0.653008 1.44377
lowerneck -15.2647 -1.54003 -2.88455
upperneck 24.0569 -1.89075 1.78053
head 10.2459 -0.930433 0.865407
rclavicle -5.889e-015 -1.05356e-014
rhumerus -24.9724 -20.4046 -77.9912
rradius 24.8178
rwrist 33.3608
rhand -17.5012 -26.1504
rfingers 7.12502
rthumb 8.75169 -55.9489
lclavicle -5.889e-015 -1.05356e-014
lhumerus -23.6819 13.0229 81.3331
lradius 15.3851
lwrist -7.79361
lhand -23.1013 -3.33729
lfingers 7.12502
lthumb 3.34531 26.6162
rfemur -10.6797 -1.77862 18.7906
rtibia 19.9551
rfoot -13.5147 -1.76335
rtoes 9.91953
lfemur -8.71292 7.27317 -17.6919
ltibia 17.4824
lfoot -11.0228 5.47535
ltoes -1.61088
166
root 0.351282 17.5323 -13.9865 4.84561 -2.65441 -1.27351
lowerback -2.88054 -0.897693 0.0378137
upperback 1.75916 -1.24818 1.49268
thorax 3.45729 -0.639613 1.44202
lowerneck -15.279 -1.45661 -2.88962
upperneck 24.2389 -1.77825 1.79862
head 10.3118 -0.877177 0.888253
rclavicle 4.39811e-015 -2.64384e-014
rhumerus -24.734 -19.8271 -78.2532
rradius 24.9884
rwrist 32.9248
rhand -17.6871 -26.084
rfingers 7.12502
rthumb 8.57232 -55.8899
lclavicle 4.39811e-015 -2.64384e-014
lhumerus -23.4226 12.4265 81.5259
lradius 15.6023
lwrist -7.05332
lhand -23.226 -3.38078
lfingers 7.12502
lthumb 3.22484 26.5746
rfemur -10.825 -1.77753 18.8295
rtibia 20.0678
rfoot -13.5029 -1.84314
rtoes 9.87084
lfemur -8.94697 7.26037 -17.6721
ltibia 17.7139
lfoot -11.0558 5.43736
ltoes -1.67116
167
root 0.352802 17.5303 -14.0055 4.87467 -2.57336 -1.3053
lowerback -2.72271 -0.877353 0.0836322
upperback 1.83356 -1.22318 1.51182
thorax 3.44384 -0.626602 1.43937
lowerneck -15.3016 -1.37522 -2.88874
upperneck 24.4127 -1.6697 1.81666
head 10.3765 -0.82521 0.909644
rclavicle -1.10574e-014 1.27222e-014
rhumerus -24.4903 -19.3002 -78.4849
rradius 25.1255
rwrist 32.5294
rhand -17.8817 -26.0216
rfingers 7.12502
rthumb 8.38454 -55.8351
lclavicle -1.10574e-014 1.27222e-014
lhumerus -23.1683 11.8118 81.7108
lradius 15.8277
lwrist -6.30131
lhand -23.3462 -3.40959
lfingers 7.12502
lthumb 3.10876 26.5475
rfemur -10.9729 -1.78522 18.8683
rtibia 20.1786
rfoot -13.4911 -1.91625
rtoes 9.819
lfemur -9.18473 7.24886 -17.6526
ltibia 17.9451
lfoot -11.0935 5.39573
ltoes -1.71525
168
root 0.354588 17.5283 -14.0244 4.90475 -2.49374 -1.33905
lowerback -2.56355 -0.856023 0.132923
upperback 1.90817 -1.19683 1.53046
thorax 3.42975 -0.612812 1.43428
lowerneck -15.33 -1.29817 -2.88305
upperneck 24.5844 -1.56777 1.83293
head 10.4418 -0.776075 0.928837
rclavicle -7.52897e-015 1.45113e-014
rhumerus -24.2446 -18.8348 -78.6854
rradius 25.2315
rwrist 32.1812
rhand -18.0781 -25.9558
rfingers 7.12502
rthumb 8.19493 -55.7769
lclavicle -7.52897e-015 1.45113e-014
lhumerus -22.9191 11.1788 81.8863
lradius 16.0597
lwrist -5.54099
lhand -23.4588 -3.4258
lfingers 7.12502
lthumb 3.00003 26.5328
rfemur -11.1222 -1.79959 18.9082
rtibia 20.2891
rfoot -13.4779 -1.98246
rtoes 9.76056
lfemur -9.42098 7.23984 -17.6317
ltibia 18.1733
lfoot -11.1341 5.35156
ltoes -1.74791
169
root 0.356505 17.5262 -14.0433 4.93764 -2.41702 -1.37088
lowerback -2.4063 -0.833282 0.180031
upperback 1.98242 -1.16835 1.5483
thorax 3.41638 -0.597981 1.42959
lowerneck -15.363 -1.22497 -2.87186
upperneck 24.7491 -1.47157 1.84593
head 10.5057 -0.729463 0.945267
rclavicle -9.69075e-015 1.59028e-014
rhumerus -24.0018 -18.4273 -78.8559
rradius 25.3172
rwrist 31.8787
rhand -18.2624 -25.9121
rfingers 7.12502
rthumb 8.01707 -55.74
lclavicle -9.69075e-015 1.59028e-014
lhumerus -22.6779 10.5342 82.0514
lradius 16.2999
lwrist -4.78504
lhand -23.5679 -3.44879
lfingers 7.12502
lthumb 2.89464 26.5113
rfemur -11.2761 -1.81928 18.9454
rtibia 20.4011
rfoot -13.466 -2.0425
rtoes 9.69891
lfemur -9.65611 7.232 -17.6135
ltibia 18.3953
lfoot -11.1755 5.30746
ltoes -1.77896
170
root 0.35839 17.5242 -14.0618 4.97507 -2.34391 -1.39881
lowerback -2.25388 -0.80832 0.222702
upperback 2.05562 -1.13653 1.5634
thorax 3.4046 -0.581544 1.42459
lowerneck -15.4001 -1.15731 -2.85297
upperneck 24.9096 -1.38332 1.85266
head 10.5692 -0.686538 0.957181
rclavicle -2.98177e-016 -1.17283e-014
rhumerus -23.7685 -18.0825 -78.9986
rradius 25.3916
rwrist 31.6191
rhand -18.4288 -25.8959
rfingers 7.12502
rthumb 7.8565 -55.7299
lclavicle -2.98177e-016 -1.17283e-014
lhumerus -22.4442 9.87549 82.2054
lradius 16.5475
lwrist -4.03283
lhand -23.6846 -3.47981
lfingers 7.12502
lthumb 2.78192 26.4818
rfemur -11.4365 -1.84406 18.9784
rtibia 20.5159
rfoot -13.4551 -2.09527
rtoes 9.64392
lfemur -9.89036 7.22922 -17.5997
ltibia 18.6094
lfoot -11.2153 5.26003
ltoes -1.81934
171
root 0.360036 17.5224 -14.0802 5.01995 -2.27498 -1.42471
lowerback -2.10723 -0.781782 0.257915
upperback 2.12611 -1.10226 1.57906
thorax 3.39342 -0.564047 1.42432
lowerneck -15.4324 -1.09296 -2.82973
upperneck 25.0577 -1.29925 1.8536
head 10.6274 -0.645842 0.965775
rclavicle 2.08724e-015 -1.49089e-014
rhumerus -23.548 -17.7967 -79.1131
rradius 25.4629
rwrist 31.4026
rhand -18.564 -25.9209
rfingers 7.12502
rthumb 7.72601 -55.7598
lclavicle 2.08724e-015 -1.49089e-014
lhumerus -22.2231 9.20829 82.3498
lradius 16.8051
lwrist -3.29533
lhand -23.8125 -3.52092
lfingers 7.12502
lthumb 2.65844 26.4423
rfemur -11.6079 -1.86688 19.0104
rtibia 20.635
rfoot -13.4449 -2.14696
rtoes 9.60356
lfemur -10.1268 7.22949 -17.5877
ltibia 18.8129
lfoot -11.2518 5.21009
ltoes -1.85784
172
root 0.361292 17.5207 -14.0985 5.07553 -2.20902 -1.44566
lowerback -1.96838 -0.754285 0.280309
upperback 2.19308 -1.0662 1.59501
thorax 3.38323 -0.545958 1.43145
lowerneck -15.4607 -1.03461 -2.80843
upperneck 25.1919 -1.22256 1.85288
head 10.6801 -0.608912 0.973124
rclavicle 1.83379e-014 8.54774e-015
rhumerus -23.3411 -17.5674 -79.2027
rradius 25.5367
rwrist 31.2275
rhand -18.6648 -25.9845
rfingers 7.12502
rthumb 7.62873 -55.8269
lclavicle 1.83379e-014 8.54774e-015
lhumerus -22.019 8.5555 82.4801
lradius 17.0776
lwrist -2.59762
lhand -23.9477 -3.56365
lfingers 7.12502
lthumb 2.52782 26.4011
rfemur -11.7939 -1.88886 19.0387
rtibia 20.7581
rfoot -13.4349 -2.19639
rtoes 9.57332
lfemur -10.3691 7.23365 -17.5807
ltibia 19.0057
lfoot -11.2846 5.1564
ltoes -1.89096
173
root 0.362174 17.5192 -14.1165 5.1425 -2.14758 -1.45974
lowerback -1.83894 -0.726185 0.288484
upperback 2.25465 -1.02879 1.61019
thorax 3.37299 -0.527514 1.44564
lowerneck -15.4894 -0.981035 -2.78925
upperneck 25.3186 -1.15182 1.85194
head 10.7304 -0.574941 0.979972
rclavicle 8.74653e-015 -2.32578e-014
rhumerus -23.1552 -17.3943 -79.27
rradius 25.6188
rwrist 31.0979
rhand -18.7354 -26.0778
rfingers 7.12502
rthumb 7.56054 -55.9226
lclavicle 8.74653e-015 -2.32578e-014
lhumerus -21.8356 7.92764 82.5931
lradius 17.3603
lwrist -1.94676
lhand -24.0977 -3.60252
lfingers 7.12502
lthumb 2.38296 26.3639
rfemur -11.9942 -1.91176 19.0611
rtibia 20.8843
rfoot -13.425 -2.24093
rtoes 9.54547
lfemur -10.6175 7.24481 -17.5815
ltibia 19.1868
lfoot -11.3138 5.09789
ltoes -1.9226
174
root 0.362758 17.518 -14.1342 5.21837 -2.09087 -1.47147
lowerback -1.71616 -0.697277 0.286942
upperback 2.30963 -0.989964 1.62651
thorax 3.35986 -0.508596 1.46636
lowerneck -15.4949 -0.933347 -2.7808
upperneck 25.4221 -1.08861 1.85756
head 10.768 -0.544709 0.989919
rclavicle -1.30701e-014 -2.14687e-014
rhumerus -22.9948 -17.2659 -79.3155
rradius 25.7117
rwrist 31.0033
rhand -18.7737 -26.1886
rfingers 7.12502
rthumb 7.52362 -56.0348
lclavicle -1.30701e-014 -2.14687e-014
lhumerus -21.6768 7.33991 82.6874
lradius 17.6491
lwrist -1.35794
lhand -24.2561 -3.64735
lfingers 7.12502
lthumb 2.22999 26.3207
rfemur -12.2049 -1.9345 19.0822
rtibia 21.012
rfoot -13.4143 -2.28131
rtoes 9.50432
lfemur -10.8679 7.2586 -17.5852
ltibia 19.3556
lfoot -11.3385 5.03941
ltoes -1.9433
175
root 0.363154 17.517 -14.1513 5.3018 -2.03631 -1.47791
lowerback -1.60198 -0.668954 0.276506
upperback 2.35903 -0.951588 1.64113
thorax 3.34591 -0.490083 1.49013
lowerneck -15.4973 -0.8882 -2.76803
upperneck 25.5147 -1.02918 1.85977
head 10.801 -0.516201 0.997361
rclavicle 1.15295e-014 -1.70955e-014
rhumerus -22.8555 -17.1859 -79.3424
rradius 25.8073
rwrist 30.9459
rhand -18.7876 -26.2974
rfingers 7.12502
rthumb 7.51019 -56.144
lclavicle 1.15295e-014 -1.70955e-014
lhumerus -21.5419 6.79682 82.7606
lradius 17.9409
lwrist -0.829805
lhand -24.414 -3.69491
lfingers 7.12502
lthumb 2.07752 26.2747
rfemur -12.4214 -1.96238 19.0982
rtibia 21.1381
rfoot -13.4049 -2.31527
rtoes 9.45709
lfemur -11.1179 7.274 -17.5954
ltibia 19.5119
lfoot -11.3597 4.97955
ltoes -1.95675
